<?xml version="1.0" encoding="UTF-8" standalone="no"?>
<!-- Created with Inkscape (http://www.inkscape.org/) -->
<svg
   xmlns:dc="http://purl.org/dc/elements/1.1/"
   xmlns:cc="http://web.resource.org/cc/"
   xmlns:rdf="http://www.w3.org/1999/02/22-rdf-syntax-ns#"
   xmlns:svg="http://www.w3.org/2000/svg"
   xmlns="http://www.w3.org/2000/svg"
   xmlns:sodipodi="http://sodipodi.sourceforge.net/DTD/sodipodi-0.dtd"
   xmlns:inkscape="http://www.inkscape.org/namespaces/inkscape"
   width="1015.7952"
   height="448.29919"
   id="svg2022"
   sodipodi:version="0.32"
   inkscape:version="0.44"
   version="1.0"
   sodipodi:docbase="C:\Dokumente und Einstellungen\Andreas\Eigene Dateien\Eigene Bilder\sonstiges\Logos\Vektor\Computer, Electronics"
   sodipodi:docname="Infineon-Logo.svg">
  <defs
     id="defs2024" />
  <sodipodi:namedview
     id="base"
     pagecolor="#ffffff"
     bordercolor="#666666"
     borderopacity="1.0"
     inkscape:pageopacity="0.0"
     inkscape:pageshadow="2"
     inkscape:zoom="0.35"
     inkscape:cx="350"
     inkscape:cy="520"
     inkscape:document-units="px"
     inkscape:current-layer="layer1"
     width="286.68mm"
     height="126.52mm"
     units="mm"
     inkscape:window-width="904"
     inkscape:window-height="574"
     inkscape:window-x="184"
     inkscape:window-y="184" />
  <metadata
     id="metadata2027">
    <rdf:RDF>
      <cc:Work
         rdf:about="">
        <dc:format>image/svg+xml</dc:format>
        <dc:type
           rdf:resource="http://purl.org/dc/dcmitype/StillImage" />
      </cc:Work>
    </rdf:RDF>
  </metadata>
  <g
     inkscape:label="Ebene 1"
     inkscape:groupmode="layer"
     id="layer1"
     transform="translate(-7.070319,-358.1687)">
    <g
       id="g2044"
       transform="translate(3.539373,3.545416)">
      <path
         d="M 305.19513,372.8802 C 305.19513,372.8802 281.54355,376.74381 256.27342,383.27019 C 237.16419,388.17802 223.95482,392.3027 218.99476,393.86902 C 218.99476,393.8168 218.99476,393.7646 218.99476,393.7124 C 211.73744,395.95746 204.68896,398.35917 197.74489,400.76088 C 204.79338,407.70493 209.23131,417.25955 209.5968,427.80617 C 215.23558,425.35226 220.92657,422.95055 226.77422,420.60105 C 226.77422,420.54885 226.77422,420.54885 226.77422,420.54885 C 233.30058,418.19934 250.9479,411.7774 266.1413,406.66072 C 285.09389,400.23876 310.83392,392.3549 310.83392,392.3549 C 385.7567,371.67934 468.71998,359.67083 545.99226,360.24514 C 456.86809,354.91962 375.8366,360.0885 305.19513,372.8802 M 1014.5338,654.76738 C 934.33767,727.60173 751.65138,770.10148 542.96401,770.10148 C 259.45829,770.10148 76.302111,686.92935 63.510414,576.92078 C 58.75922,535.56968 91.338873,495.57605 145.48168,461.37785 C 135.92708,454.17273 129.71396,442.84293 129.4529,430.05124 C 51.293035,471.03688 7.0703186,524.97084 7.0703186,579.74018 C 7.0703186,700.97412 223.9026,803.72536 545.99226,799.23521 C 765.12182,796.20698 931.57049,733.71042 1015.7868,657.2213 L 1014.5338,654.76738"
         style="font-size:22.26300049px;letter-spacing:1.55840003;word-spacing:0;fill:#ec1840;fill-rule:nonzero;stroke:none;font-family:fnt0, &quot;Meta&quot;, Arial"
         id="path38" />
      <path
         style="font-size:22.26300049px;letter-spacing:1.55840003;word-spacing:0;fill:#0066b3;fill-rule:nonzero;stroke:none;font-family:fnt0, &quot;Meta&quot;, Arial"
         d="M 139.99953,429.32029 C 139.99953,412.97825 153.2089,399.71665 169.55096,399.71665 C 185.893,399.71665 199.15459,412.97825 199.15459,429.32029 C 199.15459,445.66233 185.893,458.87172 169.55096,458.87172 C 153.2089,458.87172 139.99953,445.66233 139.99953,429.32029"
         class="ps02"
         id="path36" />
      <path
         style="font-size:22.26300049px;letter-spacing:1.55840003;word-spacing:0;fill:#0066b3;fill-rule:nonzero;stroke:none;font-family:fnt0, &quot;Meta&quot;, Arial"
         d="M 156.4982,651.79135 L 156.4982,482.15781 L 184.37887,478.45084 L 184.37887,651.79135 L 156.4982,651.79135"
         class="ps02 ps20"
         id="path42" />
      <path
         style="font-size:22.26300049px;letter-spacing:1.55840003;word-spacing:0;fill:#0066b3;fill-rule:nonzero;stroke:none;font-family:fnt0, &quot;Meta&quot;, Arial"
         d="M 278.09761,651.79135 L 278.09761,554.73112 C 278.09761,543.66237 277.10561,539.12002 274.91274,535.98736 C 272.92873,533.16797 269.48281,532.33259 265.77583,532.33259 C 260.3981,532.33259 252.30539,536.87494 245.62238,545.07207 L 245.62238,651.79135 L 217.89833,651.79135 L 217.89833,545.95965 C 217.89833,528.62561 215.65327,518.96658 214.19136,511.0305 L 240.24465,504.24307 C 240.9756,506.80142 243.42952,513.8499 243.69057,521.26386 C 250.79127,512.4402 263.84401,505.07845 276.58351,505.07845 C 286.45138,505.07845 294.28303,509.04648 299.19086,515.3118 C 304.88186,522.4125 305.82166,532.01932 305.82166,541.67835 L 305.82166,651.79135 L 278.09761,651.79135"
         class="ps02 ps20"
         id="path44" />
      <path
         style="font-size:22.26300049px;letter-spacing:1.55840003;word-spacing:0;fill:#0066b3;fill-rule:nonzero;stroke:none;font-family:fnt0, &quot;Meta&quot;, Arial"
         d="M 396.45996,472.44658 C 393.27509,469.88823 388.10619,468.21748 383.19837,468.21748 C 376.30651,468.21748 372.12964,474.74386 372.12964,485.81259 L 372.12964,507.89785 L 398.18292,507.89785 L 393.01402,532.33259 L 372.12964,532.33259 L 372.12964,651.79135 L 343.62242,651.79135 L 343.62242,532.33259 L 334.06781,532.33259 L 334.06781,507.89785 L 343.62242,507.89785 C 343.62242,507.89785 343.15253,497.97775 343.15253,488.89304 C 343.15253,467.3299 350.25323,456.00012 356.88401,450.30912 C 363.56702,444.93137 371.13761,443.20842 378.29053,443.20842 C 388.5761,443.20842 396.98207,445.5057 404.34382,450.88344 L 396.45996,472.44658"
         class="ps02 ps20"
         id="path46" />
      <path
         style="font-size:22.26300049px;letter-spacing:1.55840003;word-spacing:0;fill:#0066b3;fill-rule:nonzero;stroke:none;font-family:fnt0, &quot;Meta&quot;, Arial"
         d="M 419.58943,651.79135 L 419.58943,508.78543 L 447.83558,505.07845 L 447.83558,651.79135 L 419.58943,651.79135 z M 433.11208,487.79661 C 423.03536,487.79661 414.94265,479.59948 414.94265,469.36613 C 414.94265,459.18499 423.29641,450.98786 433.58198,450.98786 C 443.6587,450.98786 451.80361,459.18499 451.80361,469.36613 C 451.80361,479.59948 443.44985,487.79661 433.11208,487.79661"
         class="ps02 ps20"
         id="path48" />
      <path
         style="font-size:22.26300049px;letter-spacing:1.55840003;word-spacing:0;fill:#0066b3;fill-rule:nonzero;stroke:none;font-family:fnt0, &quot;Meta&quot;, Arial"
         d="M 543.59055,651.79135 L 543.59055,554.73112 C 543.59055,543.66237 542.65075,539.12002 540.40568,535.98736 C 538.47387,533.16797 535.02795,532.33259 531.32097,532.33259 C 525.89102,532.33259 517.79831,536.87494 511.16752,545.07207 L 511.16752,651.79135 L 483.39127,651.79135 L 483.39127,545.95965 C 483.39127,528.62561 481.19841,518.96658 479.7365,511.0305 L 505.78979,504.24307 C 506.52074,506.80142 508.97466,513.8499 509.23571,521.26386 C 516.33641,512.4402 529.33695,505.07845 542.12865,505.07845 C 551.9443,505.07845 559.82816,509.04648 564.736,515.3118 C 570.3748,522.4125 571.3668,532.01932 571.3668,541.67835 L 571.3668,651.79135 L 543.59055,651.79135"
         class="ps02 ps20"
         id="path50" />
      <path
         style="font-size:22.26300049px;letter-spacing:1.55840003;word-spacing:0;fill:#0066b3;fill-rule:nonzero;stroke:none;font-family:fnt0, &quot;Meta&quot;, Arial"
         d="M 659.96886,537.97137 C 657.25389,531.44501 652.81596,527.47697 645.71526,527.47697 C 633.18463,527.47697 627.75468,539.12002 627.28479,564.6512 L 663.15373,564.6512 C 663.15373,553.32142 662.16172,543.66237 659.96886,537.97137 z M 627.28479,587.62404 L 627.28479,590.49564 C 627.28479,599.84142 628.01573,608.3518 631.46166,615.76576 C 635.63854,624.53721 642.73924,629.39284 651.35406,629.39284 C 661.43078,629.39284 670.04558,624.27616 678.6604,615.19145 L 689.67693,635.867 C 677.40735,649.23302 664.14574,655.18507 648.90013,655.18507 C 616.21604,655.18507 597.52452,627.09556 597.52452,579.42691 C 597.52452,554.73112 601.7536,536.56169 610.83831,522.93461 C 619.40093,510.19513 631.2006,503.9298 645.45421,503.9298 C 658.97685,503.9298 669.78454,509.35975 677.40735,519.27985 C 687.48407,532.33259 691.39988,549.9277 691.39988,581.41092 L 691.39988,587.62404 L 627.28479,587.62404"
         class="ps02 ps20"
         id="path52" />
      <path
         style="font-size:22.26300049px;letter-spacing:1.55840003;word-spacing:0;fill:#0066b3;fill-rule:nonzero;stroke:none;font-family:fnt0, &quot;Meta&quot;, Arial"
         d="M 758.69986,529.46099 C 740.00832,529.46099 740.00832,563.50256 740.00832,578.27827 C 740.00832,593.88935 739.53843,629.91494 759.43082,629.91494 C 777.8613,629.91494 777.8613,593.88935 777.8613,578.85259 C 777.8613,563.2415 778.59226,529.46099 758.69986,529.46099 z M 758.69986,655.44613 C 720.37699,655.44613 710.30027,614.61713 710.03922,579.42691 C 709.77815,543.92343 722.56985,503.9298 758.96093,503.9298 C 787.67697,503.9298 808.30031,529.77426 808.30031,578.85259 C 808.30031,615.4525 796.29179,655.44613 758.69986,655.44613"
         class="ps02 ps20"
         id="path54" />
      <path
         style="font-size:22.26300049px;letter-spacing:1.55840003;word-spacing:0;fill:#0066b3;fill-rule:nonzero;stroke:none;font-family:fnt0, &quot;Meta&quot;, Arial"
         d="M 891.94234,651.79135 L 891.94234,554.73112 C 891.94234,543.66237 890.95032,539.12002 888.70525,535.98736 C 886.77344,533.16797 883.32752,532.33259 879.62054,532.33259 C 874.24281,532.33259 866.09788,536.87494 859.46709,545.07207 L 859.46709,651.79135 L 831.74306,651.79135 L 831.74306,545.95965 C 831.74306,528.62561 829.49798,518.96658 828.03608,511.0305 L 854.08936,504.24307 C 854.82031,506.80142 857.27423,513.8499 857.53528,521.26386 C 864.63598,512.4402 877.63652,505.07845 890.42822,505.07845 C 900.24388,505.07845 908.12774,509.04648 913.03557,515.3118 C 918.67437,522.4125 919.66638,532.01932 919.66638,541.67835 L 919.66638,651.79135 L 891.94234,651.79135"
         class="ps02 ps20"
         id="path56" />
    </g>
  </g>
</svg>
